<?xml version="1.0" encoding="utf-8"?>
<!-- Generator: Adobe Illustrator 18.1.1, SVG Export Plug-In . SVG Version: 6.00 Build 0)  -->
<svg version="1.1" id="Layer_1" xmlns="http://www.w3.org/2000/svg" xmlns:xlink="http://www.w3.org/1999/xlink" x="0px" y="0px"
	 viewBox="141 270.896 330 250.208" enable-background="new 141 270.896 330 250.208" xml:space="preserve">
<polygon fill="#BA803C" points="232.965,367.37 232.965,400.431 246.711,400.431 246.711,408.088 211.561,408.088 211.561,400.431 
	225.395,400.431 225.395,371.981 193.9,399.475 162.316,371.981 162.316,400.431 176.063,400.431 176.063,408.088 141,408.088 
	141,400.431 154.747,400.431 154.747,367.37 141,367.37 141,359.8 159.968,359.8 193.9,389.382 227.744,359.8 246.711,359.8 
	246.711,367.37 "/>
<path fill="#BA803C" d="M356.52,367.457h-13.747v21.056c0,10.787-8.788,19.575-19.664,19.575h-27.267
	c-10.876,0-19.664-8.788-19.664-19.575v-21.056h-13.747v-7.655h35.15v7.655H283.75v21.056c0,6.612,5.394,12.005,12.093,12.005
	h27.267c6.613,0,12.007-5.394,12.007-12.005v-21.056H321.37v-7.655h35.15V367.457L356.52,367.457z"/>
<path fill="#BA803C" d="M471,403.042c-4.785,2.958-10.44,6.09-16.357,6.09c-5.655,0-10.178-3.307-14.094-9.222l-6.177-9.222H394.6
	v9.831h21.229v7.57H372.24v-7.57h14.79v-33.062h-14.79V359.8h76.051c7.31,0,12.965,5.655,12.965,12.791v5.046
	c0,7.221-5.83,13.051-12.965,13.051h-4.785l3.481,5.655c2.958,3.567,4.523,5.134,7.742,5.134c3.045,0,6.873-1.654,12.354-4.959
	L471,403.042z M394.6,383.031h53.691c2.959,0,5.395-2.349,5.395-5.394v-5.046c0-2.872-2.436-5.134-5.395-5.134H394.6V383.031z"/>
<polygon fill="#BA803C" points="232.965,433.671 232.965,466.733 246.711,466.733 246.711,474.39 211.561,474.39 211.561,466.733 
	225.395,466.733 225.395,438.283 193.9,465.777 162.316,438.283 162.316,466.733 176.063,466.733 176.063,474.39 141,474.39 
	141,466.733 154.747,466.733 154.747,433.671 141,433.671 141,426.101 159.968,426.101 193.9,455.684 227.744,426.101 
	246.711,426.101 246.711,433.671 "/>
<path fill="#BA803C" d="M356.52,433.758h-13.747v21.056c0,10.787-8.788,19.575-19.664,19.575h-27.267
	c-10.876,0-19.664-8.788-19.664-19.575v-21.056h-13.747v-7.655h35.15v7.655H283.75v21.056c0,6.612,5.394,12.005,12.093,12.005
	h27.267c6.613,0,12.007-5.394,12.007-12.005v-21.056H321.37v-7.655h35.15V433.758L356.52,433.758z"/>
<path fill="#BA803C" d="M471,469.343c-4.785,2.958-10.44,6.09-16.357,6.09c-5.655,0-10.178-3.307-14.094-9.222l-6.177-9.222H394.6
	v9.831h21.229v7.57H372.24v-7.57h14.79v-33.062h-14.79v-7.657h76.051c7.31,0,12.965,5.655,12.965,12.791v5.046
	c0,7.221-5.83,13.051-12.965,13.051h-4.785l3.481,5.655c2.958,3.567,4.523,5.134,7.742,5.134c3.045,0,6.873-1.654,12.354-4.959
	L471,469.343z M394.6,449.332h53.691c2.959,0,5.395-2.349,5.395-5.394v-5.046c0-2.872-2.436-5.134-5.395-5.134H394.6V449.332z"/>
<path fill="#BA803C" d="M184.439,511.549v-0.052c0-5.282,3.952-9.606,9.58-9.606c2.865,0,4.75,0.848,6.369,2.096
	c0.346,0.265,0.635,0.717,0.635,1.3c0,0.904-0.715,1.591-1.619,1.591c-0.448,0-0.77-0.159-0.981-0.318
	c-1.274-1.035-2.654-1.672-4.432-1.672c-3.528,0-6.13,2.919-6.13,6.556v0.052c0,3.636,2.574,6.582,6.13,6.582
	c1.965,0,3.289-0.637,4.643-1.778c0.241-0.211,0.583-0.372,0.984-0.372c0.822,0,1.539,0.689,1.539,1.513
	c0,0.504-0.241,0.9-0.532,1.167c-1.75,1.539-3.741,2.495-6.741,2.495C188.472,521.104,184.439,516.885,184.439,511.549"/>
<path fill="#BA803C" d="M220.738,503.853c0-0.928,0.715-1.646,1.644-1.646h6.636c2.337,0,4.165,0.689,5.361,1.858
	c0.984,1.009,1.539,2.387,1.539,4.006v0.054c0,2.972-1.726,4.778-4.218,5.546l3.554,4.486c0.318,0.398,0.532,0.742,0.532,1.248
	c0,0.9-0.77,1.511-1.567,1.511c-0.742,0-1.22-0.344-1.591-0.848l-4.512-5.758h-4.115v4.989c0,0.902-0.715,1.618-1.619,1.618
	c-0.928,0-1.644-0.715-1.644-1.618V503.853z M228.778,511.418c2.337,0,3.821-1.221,3.821-3.106v-0.052
	c0-1.991-1.433-3.08-3.846-3.08h-4.753v6.238H228.778z"/>
<path fill="#BA803C" d="M255.818,519.139v-15.286c0-0.928,0.715-1.647,1.644-1.647h10.801c0.797,0,1.461,0.665,1.461,1.461
	c0,0.824-0.663,1.461-1.461,1.461h-9.182v4.83h7.987c0.797,0,1.461,0.661,1.461,1.485c0,0.796-0.663,1.433-1.461,1.433h-7.987v4.991
	h9.316c0.794,0,1.461,0.663,1.461,1.459c0,0.824-0.667,1.461-1.461,1.461h-10.936C256.534,520.785,255.818,520.068,255.818,519.139"
	/>
<path fill="#BA803C" d="M288.43,518.661l6.901-15.391c0.373-0.824,1.035-1.328,1.965-1.328h0.159c0.928,0,1.567,0.504,1.935,1.328
	l6.901,15.391c0.134,0.239,0.187,0.478,0.187,0.691c0,0.874-0.663,1.565-1.539,1.565c-0.771,0-1.302-0.452-1.591-1.141l-1.513-3.476
	h-9.023l-1.567,3.581c-0.267,0.665-0.822,1.036-1.513,1.036c-0.85,0-1.511-0.663-1.511-1.513
	C288.221,519.165,288.299,518.926,288.43,518.661 M300.585,513.407l-3.263-7.51l-3.265,7.51H300.585z"/>
<path fill="#BA803C" d="M328.341,505.234h-4.512c-0.848,0-1.511-0.689-1.511-1.513c0-0.822,0.663-1.513,1.511-1.513h12.342
	c0.822,0,1.485,0.691,1.485,1.513c0,0.824-0.663,1.513-1.485,1.513h-4.54V519.3c0,0.902-0.742,1.619-1.642,1.619
	c-0.906,0-1.647-0.717-1.647-1.619V505.234z"/>
<path fill="#BA803C" d="M357.056,503.695c0-0.902,0.715-1.619,1.644-1.619c0.904,0,1.619,0.717,1.619,1.619v15.603
	c0,0.902-0.715,1.619-1.619,1.619c-0.928,0-1.644-0.717-1.644-1.619V503.695z"/>
<path fill="#BA803C" d="M386.567,519.724l-6.5-15.286c-0.106-0.239-0.187-0.478-0.187-0.77c0-0.876,0.717-1.591,1.647-1.591
	c0.848,0,1.405,0.476,1.67,1.166l5.361,13.401l5.441-13.506c0.211-0.557,0.797-1.061,1.569-1.061c0.9,0,1.614,0.688,1.614,1.565
	c0,0.237-0.079,0.504-0.159,0.689l-6.528,15.392c-0.344,0.824-0.956,1.328-1.885,1.328h-0.183
	C387.523,521.052,386.912,520.547,386.567,519.724"/>
<path fill="#BA803C" d="M416.528,519.139v-15.286c0-0.928,0.715-1.647,1.644-1.647h10.801c0.797,0,1.461,0.665,1.461,1.461
	c0,0.824-0.663,1.461-1.461,1.461h-9.182v4.83h7.987c0.797,0,1.461,0.661,1.461,1.485c0,0.796-0.663,1.433-1.461,1.433h-7.987v4.991
	h9.316c0.794,0,1.461,0.663,1.461,1.459c0,0.824-0.667,1.461-1.461,1.461h-10.936C417.243,520.785,416.528,520.068,416.528,519.139"
	/>
<path fill="#BA803C" d="M309.696,342.471c-4.42,0-8.015-3.595-8.015-8.015c0-0.64,0.52-1.16,1.16-1.16h14.345
	c0.419,0,0.757-0.339,0.757-0.756c0-0.419-0.339-0.757-0.757-0.757h-14.734c-1.698,0-3.076-1.38-3.076-3.076
	c0-1.698,1.379-3.078,3.076-3.078h14.734c0.419,0,0.757-0.34,0.757-0.757s-0.339-0.757-0.757-0.757h-14.734
	c-1.698,0-3.076-1.379-3.076-3.076s1.379-3.078,3.076-3.078h12.895v-2.909c0-0.152,0.03-0.302,0.087-0.443
	c0.082-0.201,2.08-4.982,6.699-10.547c1.26-1.516,2.352-3.23,3.247-5.095c2.281-4.762,2.658-9.704,1.028-13.557
	c-1.108-3.235-3.874-6.901-6.751-8.99c-2.769-2.012-6.179-3.15-9.603-3.202h-0.464c-3.404,0.052-6.814,1.19-9.583,3.2
	c-2.926,2.125-5.406,5.381-6.472,8.496c-1.715,4.064-1.41,9.55,0.749,14.052c0.892,1.86,1.986,3.575,3.246,5.095
	c3.418,4.116,5.626,7.901,6.439,9.829h2.645c0.007-2.68,0.023-9.449,0.03-14.167h-1.352c-0.063,0.007-3.024,0.147-4.898-1.851
	c-1.187-1.262-1.652-3.024-1.385-5.238c0.061-0.517,0.457-0.928,0.972-1.009c0.513-0.082,5.107-0.731,7.536,1.347
	c0.949,0.811,1.452,1.947,1.452,3.282v1.148h2.05v-1.148c0-1.375,0.513-2.523,1.48-3.322c2.371-1.956,6.692-1.195,7.174-1.105
	c0.499,0.096,0.876,0.504,0.935,1.007c0.255,2.214-0.208,3.959-1.38,5.188c-1.778,1.865-4.493,1.707-4.607,1.698l-1.281,0.002
	v15.169c0,0.64-0.518,1.16-1.16,1.16c-0.64,0-1.16-0.52-1.16-1.16v-15.167h-2.054c-0.009,6.006-0.031,15.329-0.031,15.329
	c-0.002,0.64-0.522,1.159-1.16,1.159h-4.615c-0.588,0-1.073-0.438-1.15-1.005c-0.169-0.539-1.909-4.418-6.263-9.662
	c-1.384-1.668-2.579-3.542-3.553-5.575c-2.432-5.074-2.755-11.309-0.824-15.884c1.187-3.467,3.984-7.153,7.276-9.545
	c3.151-2.289,7.032-3.582,10.927-3.643h0.503c3.912,0.061,7.795,1.354,10.946,3.643c3.23,2.345,6.334,6.474,7.556,10.042
	c1.858,4.389,1.467,10.027-1.103,15.387c-0.977,2.036-2.172,3.912-3.553,5.575c-3.877,4.669-5.832,8.803-6.254,9.747v3.828
	c0,0.64-0.518,1.16-1.16,1.16h-14.054c-0.419,0-0.757,0.34-0.757,0.757s0.339,0.757,0.757,0.757h14.734
	c1.698,0,3.078,1.38,3.078,3.076c0,1.698-1.38,3.078-3.078,3.078h-14.734c-0.419,0-0.757,0.34-0.757,0.757
	c0,0.417,0.339,0.756,0.757,0.756h14.734c1.698,0,3.078,1.38,3.078,3.078c0,1.696-1.38,3.076-3.078,3.076h-13.066
	c0.537,2.586,2.834,4.535,5.575,4.535c2.111,0,4.038-1.159,5.031-3.022c0.298-0.565,0.998-0.784,1.569-0.48
	c0.565,0.3,0.782,1.003,0.478,1.569C315.379,340.841,312.666,342.471,309.696,342.471 M301.255,293.821
	c0.007,1.05,0.281,1.872,0.82,2.452c1.129,1.215,3.143,1.139,3.155,1.129h1.415c0.002-0.426,0.002-0.811,0.002-1.148
	c0-0.663-0.202-1.145-0.637-1.518C304.916,293.799,302.681,293.725,301.255,293.821 M313.339,297.402h1.358
	c0.091,0.002,1.844,0.086,2.86-0.991c0.527-0.558,0.794-1.372,0.797-2.426c-1.319-0.124-3.356-0.11-4.38,0.738
	c-0.435,0.358-0.635,0.845-0.635,1.53V297.402z"/>
<path fill="#BA803C" d="M201.308,327.755v-10.875c0-0.661,0.511-1.169,1.171-1.169h7.683c0.567,0,1.04,0.471,1.04,1.036
	c0,0.585-0.473,1.04-1.04,1.04h-6.531v3.434h5.683c0.565,0,1.038,0.473,1.038,1.057c0,0.567-0.473,1.021-1.038,1.021h-5.683v3.549
	h6.626c0.565,0,1.038,0.471,1.038,1.036c0,0.585-0.473,1.04-1.038,1.04h-7.777C201.819,328.926,201.308,328.417,201.308,327.755"/>
<path fill="#BA803C" d="M220.935,327.454c-0.265-0.19-0.455-0.51-0.455-0.886c0-0.605,0.494-1.078,1.098-1.078
	c0.321,0,0.529,0.096,0.681,0.209c1.094,0.869,2.263,1.358,3.696,1.358c1.436,0,2.345-0.679,2.345-1.659v-0.038
	c0-0.944-0.532-1.454-2.987-2.019c-2.809-0.681-4.397-1.513-4.397-3.945v-0.038c0-2.267,1.888-3.834,4.512-3.834
	c1.663,0,3.003,0.434,4.19,1.227c0.267,0.152,0.511,0.473,0.511,0.925c0,0.605-0.49,1.078-1.094,1.078
	c-0.227,0-0.414-0.058-0.604-0.171c-1.019-0.661-2.001-1-3.041-1c-1.356,0-2.15,0.698-2.15,1.565v0.038
	c0,1.021,0.604,1.473,3.151,2.077c2.795,0.681,4.228,1.68,4.228,3.872v0.035c0,2.474-1.944,3.947-4.718,3.947
	C224.104,329.115,222.406,328.548,220.935,327.454"/>
<path fill="#BA803C" d="M243.637,317.863h-3.211c-0.604,0-1.077-0.492-1.077-1.077c0-0.586,0.473-1.075,1.077-1.075h8.779
	c0.586,0,1.056,0.489,1.056,1.075c0,0.585-0.469,1.077-1.056,1.077h-3.228v10.004c0,0.642-0.527,1.153-1.169,1.153
	c-0.642,0-1.171-0.511-1.171-1.153V317.863L243.637,317.863z"/>
<path fill="#BA803C" d="M261.821,315.68h-2.544c-0.543,0-0.965,0.422-0.965,0.963v7.364c0,0.541,0.422,0.965,0.965,0.965h2.544
	c2.855,0,4.924-1.954,4.924-4.673C266.745,317.622,264.676,315.68,261.821,315.68 M264.756,320.352c0,1.701-1.18,2.843-2.935,2.843
	h-1.593v-5.739h1.593C263.549,317.455,264.756,318.635,264.756,320.352"/>
<path fill="#BA803C" d="M263.922,330.081h-4.218c-0.475,0-0.859-0.384-0.859-0.86c0-0.475,0.384-0.859,0.859-0.859h4.218
	c0.475,0,0.86,0.384,0.86,0.859C264.782,329.698,264.397,330.081,263.922,330.081"/>
<path fill="#BA803C" d="M351.355,326.939l4.143-3.523c1.846-1.56,2.52-2.427,2.52-3.64c0-1.33-0.942-2.099-2.174-2.099
	c-1.077,0-1.83,0.501-2.659,1.502c-0.171,0.192-0.441,0.365-0.827,0.365c-0.599,0-1.078-0.48-1.078-1.077
	c0-0.25,0.098-0.522,0.27-0.731c1.098-1.368,2.35-2.178,4.467-2.178c2.637,0,4.45,1.618,4.45,4.026v0.038
	c0,2.118-1.119,3.274-3.504,5.217l-2.776,2.312h5.472c0.576,0,1.038,0.462,1.038,1.04c0,0.578-0.462,1.04-1.038,1.04h-7.646
	c-0.733,0-1.27-0.424-1.27-1.117C350.741,327.652,350.95,327.267,351.355,326.939"/>
<path fill="#BA803C" d="M369.019,322.531v-0.04c0-3.851,2.349-6.969,5.893-6.969c3.525,0,5.856,3.082,5.856,6.931v0.038
	c0,3.853-2.352,6.971-5.893,6.971C371.33,329.462,369.019,326.382,369.019,322.531 M378.32,322.531v-0.04
	c0-2.656-1.366-4.832-3.445-4.832c-2.082,0-3.411,2.117-3.411,4.793v0.038c0,2.659,1.351,4.835,3.448,4.835
	C377.011,327.326,378.32,325.168,378.32,322.531"/>
<path fill="#BA803C" d="M388.264,322.531v-0.04c0-3.851,2.349-6.969,5.893-6.969c3.525,0,5.856,3.082,5.856,6.931v0.038
	c0,3.853-2.352,6.971-5.893,6.971C390.575,329.462,388.264,326.382,388.264,322.531 M397.565,322.531v-0.04
	c0-2.656-1.366-4.832-3.445-4.832c-2.082,0-3.411,2.117-3.411,4.793v0.038c0,2.659,1.351,4.835,3.448,4.835
	C396.256,327.326,397.565,325.168,397.565,322.531"/>
<path fill="#BA803C" d="M408.66,327.536l5.237-9.704h-5.833c-0.581,0-1.043-0.462-1.043-1.042c0-0.578,0.462-1.038,1.043-1.038
	h7.566c0.653,0,1.078,0.386,1.078,1.057c0,0.347-0.136,0.77-0.328,1.136l-5.582,10.592c-0.291,0.539-0.656,0.79-1.136,0.79
	c-0.635,0-1.216-0.386-1.216-1.061C408.443,328.078,408.543,327.748,408.66,327.536"/>
</svg>
